<?xml version="1.0" encoding="UTF-8" standalone="yes"?><svg xmlns="http://www.w3.org/2000/svg" xmlns:xlink="http://www.w3.org/1999/xlink" height="401px" style="width:642px;height:401px;" version="1.1" viewBox="0 0 642 401" width="642px"><defs><filter height="300%" id="f1" width="300%" x="-1" y="-1"><feGaussianBlur result="blurOut" stdDeviation="2.0"/><feColorMatrix in="blurOut" result="blurOut2" type="matrix" values="0 0 0 0 0 0 0 0 0 0 0 0 0 0 0 0 0 0 .4 0"/><feOffset dx="4.0" dy="4.0" in="blurOut2" result="blurOut3"/><feBlend in="SourceGraphic" in2="blurOut3" mode="normal"/></filter></defs><g><text fill="#000000" font-family="sans-serif" font-size="18" lengthAdjust="spacingAndGlyphs" textLength="335" x="157.75" y="16.708">Facebook - Post Filter - Class Diagram</text><rect fill="#FEFECE" filter="url(#f1)" height="99.2188" style="stroke: #A80036; stroke-width: 1.5;" width="239" x="33" y="29.4531"/><ellipse cx="99.75" cy="45.4531" fill="#ADD1B2" rx="11" ry="11" style="stroke: #A80036; stroke-width: 1.0;"/><path d="M102.0938,41.125 L102.2656,41.2031 C102.4844,40.8906 102.6875,40.7969 102.9844,40.7969 C103.2813,40.7969 103.5625,40.9375 103.7188,41.2031 C103.8125,41.3594 103.8281,41.4844 103.8281,41.9219 L103.8281,43.3438 C103.8281,43.7656 103.7969,43.9531 103.6875,44.1094 C103.5156,44.3281 103.25,44.4688 102.9844,44.4688 C102.7656,44.4688 102.5313,44.3594 102.3906,44.2188 C102.25,44.0938 102.2188,43.9688 102.1563,43.5625 C102.0625,43.1563 101.8906,42.9375 101.4063,42.6563 C100.9375,42.4063 100.3281,42.25 99.75,42.25 C98.0156,42.25 96.7656,43.5625 96.7656,45.3438 L96.7656,46.4375 C96.7656,48.1406 98.0625,49.2344 100.1094,49.2344 C100.875,49.2344 101.5625,49.1094 101.9844,48.8438 C102.1719,48.75 102.1719,48.75 102.625,48.2656 C102.8125,48.0781 103.0156,48 103.2344,48 C103.7031,48 104.0938,48.3906 104.0938,48.8438 C104.0938,49.2344 103.7656,49.6875 103.1875,50.0938 C102.4375,50.6406 101.2813,50.9375 100.0625,50.9375 C97.1719,50.9375 95.0625,49.0469 95.0625,46.4688 L95.0625,45.3438 C95.0625,42.625 97.0625,40.5469 99.6875,40.5469 C100.5625,40.5469 101.1563,40.6875 102.0938,41.125 Z "/><text fill="#000000" font-family="sans-serif" font-size="12" lengthAdjust="spacingAndGlyphs" textLength="97" x="120.25" y="49.6074">PostFilterGroup</text><line style="stroke: #A80036; stroke-width: 1.5;" x1="34" x2="271" y1="61.4531" y2="61.4531"/><ellipse cx="44" cy="73.3555" fill="none" rx="3" ry="3" style="stroke: #038048; stroke-width: 1.0;"/><text fill="#000000" font-family="sans-serif" font-size="11" lengthAdjust="spacingAndGlyphs" textLength="74" x="53" y="75.6636">Name: string</text><ellipse cx="44" cy="86.1602" fill="none" rx="3" ry="3" style="stroke: #038048; stroke-width: 1.0;"/><text fill="#000000" font-family="sans-serif" font-size="11" lengthAdjust="spacingAndGlyphs" textLength="95" x="53" y="88.4683">Priority: ePriority</text><rect fill="none" height="6" style="stroke: #C82930; stroke-width: 1.0;" width="6" x="41" y="95.9648"/><text fill="#000000" font-family="sans-serif" font-size="11" lengthAdjust="spacingAndGlyphs" textLength="213" x="53" y="101.2729">PostFilters: IEnumerable&lt;IPostFilter&gt;</text><line style="stroke: #A80036; stroke-width: 1.5;" x1="34" x2="271" y1="107.8672" y2="107.8672"/><ellipse cx="44" cy="119.7695" fill="#84BE84" rx="3" ry="3" style="stroke: #038048; stroke-width: 1.0;"/><text fill="#000000" font-family="sans-serif" font-size="11" lengthAdjust="spacingAndGlyphs" textLength="108" x="53" y="122.0776">IsMatch(Post): bool</text><rect fill="#FEFECE" filter="url(#f1)" height="86.4141" style="stroke: #A80036; stroke-width: 1.5;" width="83" x="550" y="35.9531"/><ellipse cx="565" cy="51.9531" fill="#EB937F" rx="11" ry="11" style="stroke: #A80036; stroke-width: 1.0;"/><path d="M563.2969,52.8281 L563.2969,55.25 L567.6563,55.25 L567.6563,54.375 C567.6563,53.8906 567.6875,53.75 567.7969,53.5938 C567.9688,53.3438 568.2344,53.2344 568.5,53.2344 C568.7813,53.2344 569.0625,53.3906 569.2344,53.6406 C569.3125,53.7969 569.3438,53.9375 569.3438,54.375 L569.3438,56.9531 L561.3438,56.9531 C560.9531,56.9531 560.7188,56.9063 560.5781,56.7813 C560.3594,56.625 560.2188,56.375 560.2188,56.1094 C560.2188,55.8125 560.375,55.5469 560.625,55.375 C560.7813,55.2656 560.9375,55.25 561.3438,55.25 L561.5938,55.25 L561.5938,48.7344 L561.3438,48.7344 C560.9219,48.7344 560.7344,48.7031 560.5781,48.5938 C560.3594,48.4219 560.2188,48.1719 560.2188,47.8906 C560.2188,47.6094 560.375,47.3125 560.625,47.1563 C560.7813,47.0625 560.9063,47.0469 561.3438,47.0469 L568.9688,47.0469 L568.9688,49.5938 C568.9688,50.0625 568.9375,50.2031 568.8281,50.375 C568.6563,50.5938 568.3906,50.7344 568.125,50.7344 C567.8438,50.7344 567.5625,50.5781 567.3906,50.3281 C567.3125,50.1719 567.2813,50 567.2813,49.5938 L567.2813,48.7344 L563.2969,48.7344 L563.2969,51.1406 L564.75,51.1406 L564.75,51.0156 C564.75,50.5625 564.7813,50.4063 564.8906,50.2344 C565.0625,50.0156 565.3281,49.875 565.5781,49.875 C566.0313,49.875 566.3438,50.1875 566.4063,50.6563 C566.4219,50.8125 566.4219,50.8594 566.4219,51.0156 L566.4219,52.9375 C566.4219,53.3906 566.3906,53.5469 566.2656,53.7031 C566.1094,53.9219 565.8438,54.0625 565.5938,54.0625 C565.2969,54.0625 565.0156,53.9063 564.8594,53.6563 C564.7813,53.5 564.75,53.3438 564.75,52.9375 L564.75,52.8281 Z "/><text fill="#000000" font-family="sans-serif" font-size="12" lengthAdjust="spacingAndGlyphs" textLength="51" x="579" y="56.1074">ePriority</text><line style="stroke: #A80036; stroke-width: 1.5;" x1="551" x2="632" y1="67.9531" y2="67.9531"/><text fill="#000000" font-family="sans-serif" font-size="11" lengthAdjust="spacingAndGlyphs" textLength="39" x="556" y="82.1636">Hidden</text><text fill="#000000" font-family="sans-serif" font-size="11" lengthAdjust="spacingAndGlyphs" textLength="51" x="556" y="94.9683">Demoted</text><text fill="#000000" font-family="sans-serif" font-size="11" lengthAdjust="spacingAndGlyphs" textLength="55" x="556" y="107.7729">Promoted</text><line style="stroke: #A80036; stroke-width: 1.5;" x1="551" x2="632" y1="114.3672" y2="114.3672"/><rect fill="#FEFECE" filter="url(#f1)" height="60.8047" style="stroke: #A80036; stroke-width: 1.5;" width="120" x="92.25" y="207.4531"/><ellipse cx="119.4" cy="223.4531" fill="#B4A7E5" rx="11" ry="11" style="stroke: #A80036; stroke-width: 1.0;"/><path d="M120.3531,220.2344 L120.3531,226.75 L122.0719,226.75 C122.525,226.75 122.6656,226.7813 122.8375,226.9063 C123.0719,227.0781 123.1813,227.3281 123.1813,227.6094 C123.1813,228.1719 122.8219,228.4531 122.0719,228.4531 L116.9313,228.4531 C116.525,228.4531 116.3219,228.4063 116.1656,228.2813 C115.9469,228.125 115.8063,227.8594 115.8063,227.6094 C115.8063,227.3125 115.9625,227.0313 116.2125,226.875 C116.3688,226.7656 116.4938,226.75 116.9313,226.75 L118.65,226.75 L118.65,220.2344 L116.9313,220.2344 C116.5094,220.2344 116.3219,220.2031 116.1656,220.0938 C115.9469,219.9219 115.8063,219.6719 115.8063,219.3906 C115.8063,219.1094 115.9625,218.8125 116.2125,218.6563 C116.3688,218.5625 116.4938,218.5469 116.9313,218.5469 L122.0719,218.5469 C122.525,218.5469 122.6656,218.5781 122.8375,218.6875 C123.0719,218.8594 123.1813,219.125 123.1813,219.3906 C123.1813,219.6875 123.0406,219.9688 122.775,220.125 C122.65,220.2031 122.4625,220.2344 122.0719,220.2344 Z "/><text fill="#000000" font-family="sans-serif" font-size="12" font-style="italic" lengthAdjust="spacingAndGlyphs" textLength="61" x="136.1" y="227.6074">IPostFilter</text><line style="stroke: #A80036; stroke-width: 1.5;" x1="93.25" x2="211.25" y1="239.4531" y2="239.4531"/><line style="stroke: #A80036; stroke-width: 1.5;" x1="93.25" x2="211.25" y1="247.4531" y2="247.4531"/><text fill="#000000" font-family="sans-serif" font-size="11" lengthAdjust="spacingAndGlyphs" textLength="108" x="98.25" y="261.6636">IsMatch(Post): bool</text><rect fill="#FEFECE" filter="url(#f1)" height="60.8047" style="stroke: #A80036; stroke-width: 1.5;" width="131" x="6" y="331.4531"/><ellipse cx="21.9" cy="347.4531" fill="#ADD1B2" rx="11" ry="11" style="stroke: #A80036; stroke-width: 1.0;"/><path d="M24.2438,343.125 L24.4156,343.2031 C24.6344,342.8906 24.8375,342.7969 25.1344,342.7969 C25.4313,342.7969 25.7125,342.9375 25.8688,343.2031 C25.9625,343.3594 25.9781,343.4844 25.9781,343.9219 L25.9781,345.3438 C25.9781,345.7656 25.9469,345.9531 25.8375,346.1094 C25.6656,346.3281 25.4,346.4688 25.1344,346.4688 C24.9156,346.4688 24.6813,346.3594 24.5406,346.2188 C24.4,346.0938 24.3688,345.9688 24.3063,345.5625 C24.2125,345.1563 24.0406,344.9375 23.5563,344.6563 C23.0875,344.4063 22.4781,344.25 21.9,344.25 C20.1656,344.25 18.9156,345.5625 18.9156,347.3438 L18.9156,348.4375 C18.9156,350.1406 20.2125,351.2344 22.2594,351.2344 C23.025,351.2344 23.7125,351.1094 24.1344,350.8438 C24.3219,350.75 24.3219,350.75 24.775,350.2656 C24.9625,350.0781 25.1656,350 25.3844,350 C25.8531,350 26.2438,350.3906 26.2438,350.8438 C26.2438,351.2344 25.9156,351.6875 25.3375,352.0938 C24.5875,352.6406 23.4313,352.9375 22.2125,352.9375 C19.3219,352.9375 17.2125,351.0469 17.2125,348.4688 L17.2125,347.3438 C17.2125,344.625 19.2125,342.5469 21.8375,342.5469 C22.7125,342.5469 23.3063,342.6875 24.2438,343.125 Z "/><text fill="#000000" font-family="sans-serif" font-size="12" lengthAdjust="spacingAndGlyphs" textLength="97" x="36.1" y="351.6074">RegexPostFilter</text><line style="stroke: #A80036; stroke-width: 1.5;" x1="7" x2="136" y1="363.4531" y2="363.4531"/><ellipse cx="17" cy="375.3555" fill="none" rx="3" ry="3" style="stroke: #038048; stroke-width: 1.0;"/><text fill="#000000" font-family="sans-serif" font-size="11" lengthAdjust="spacingAndGlyphs" textLength="105" x="26" y="377.6636">Expression: Regex</text><line style="stroke: #A80036; stroke-width: 1.5;" x1="7" x2="136" y1="384.2578" y2="384.2578"/><rect fill="#FEFECE" filter="url(#f1)" height="60.8047" style="stroke: #A80036; stroke-width: 1.5;" width="123" x="172" y="331.4531"/><ellipse cx="187" cy="347.4531" fill="#ADD1B2" rx="11" ry="11" style="stroke: #A80036; stroke-width: 1.0;"/><path d="M189.3438,343.125 L189.5156,343.2031 C189.7344,342.8906 189.9375,342.7969 190.2344,342.7969 C190.5313,342.7969 190.8125,342.9375 190.9688,343.2031 C191.0625,343.3594 191.0781,343.4844 191.0781,343.9219 L191.0781,345.3438 C191.0781,345.7656 191.0469,345.9531 190.9375,346.1094 C190.7656,346.3281 190.5,346.4688 190.2344,346.4688 C190.0156,346.4688 189.7813,346.3594 189.6406,346.2188 C189.5,346.0938 189.4688,345.9688 189.4063,345.5625 C189.3125,345.1563 189.1406,344.9375 188.6563,344.6563 C188.1875,344.4063 187.5781,344.25 187,344.25 C185.2656,344.25 184.0156,345.5625 184.0156,347.3438 L184.0156,348.4375 C184.0156,350.1406 185.3125,351.2344 187.3594,351.2344 C188.125,351.2344 188.8125,351.1094 189.2344,350.8438 C189.4219,350.75 189.4219,350.75 189.875,350.2656 C190.0625,350.0781 190.2656,350 190.4844,350 C190.9531,350 191.3438,350.3906 191.3438,350.8438 C191.3438,351.2344 191.0156,351.6875 190.4375,352.0938 C189.6875,352.6406 188.5313,352.9375 187.3125,352.9375 C184.4219,352.9375 182.3125,351.0469 182.3125,348.4688 L182.3125,347.3438 C182.3125,344.625 184.3125,342.5469 186.9375,342.5469 C187.8125,342.5469 188.4063,342.6875 189.3438,343.125 Z "/><text fill="#000000" font-family="sans-serif" font-size="12" lengthAdjust="spacingAndGlyphs" textLength="91" x="201" y="351.6074">WordPostFilter</text><line style="stroke: #A80036; stroke-width: 1.5;" x1="173" x2="294" y1="363.4531" y2="363.4531"/><ellipse cx="183" cy="375.3555" fill="none" rx="3" ry="3" style="stroke: #038048; stroke-width: 1.0;"/><text fill="#000000" font-family="sans-serif" font-size="11" lengthAdjust="spacingAndGlyphs" textLength="69" x="192" y="377.6636">Word: string</text><line style="stroke: #A80036; stroke-width: 1.5;" x1="173" x2="294" y1="384.2578" y2="384.2578"/><path d="M121.254,285.6381 C111.08,300.9617 100.0583,317.5628 90.958,331.2694 " fill="none" style="stroke: #A80036; stroke-width: 1.0; stroke-dasharray: 7.0,7.0;"/><polygon fill="none" points="115.748,281.2761,132.642,268.4861,127.411,289.0201,115.748,281.2761" style="stroke: #A80036; stroke-width: 1.0;"/><path d="M183.246,285.6381 C193.42,300.9617 204.442,317.5628 213.542,331.2694 " fill="none" style="stroke: #A80036; stroke-width: 1.0; stroke-dasharray: 7.0,7.0;"/><polygon fill="none" points="177.089,289.0201,171.858,268.4861,188.752,281.2761,177.089,289.0201" style="stroke: #A80036; stroke-width: 1.0;"/><path d="M271.629,78.9531 C364.175,78.9531 486.942,78.9531 549.997,78.9531 " fill="none" style="stroke: #A80036; stroke-width: 1.0;"/><text fill="#000000" font-family="sans-serif" font-size="13" lengthAdjust="spacingAndGlyphs" textLength="240" x="290" y="71.02">priority to set the post when matched</text><path d="M152.25,141.7821 C152.25,164.3671 152.25,188.8811 152.25,207.3741 " fill="none" style="stroke: #A80036; stroke-width: 1.0;"/><polygon fill="#A80036" points="152.25,128.7681,148.25,134.7681,152.25,140.7681,156.25,134.7681,152.25,128.7681" style="stroke: #A80036; stroke-width: 1.0;"/><text fill="#000000" font-family="sans-serif" font-size="13" lengthAdjust="spacingAndGlyphs" textLength="316" x="153.25" y="172.02">filters to use to determain if post applies to group</text><text fill="#000000" font-family="sans-serif" font-size="13" lengthAdjust="spacingAndGlyphs" textLength="8" x="142.5117" y="148.8889">1</text><text fill="#000000" font-family="sans-serif" font-size="13" lengthAdjust="spacingAndGlyphs" textLength="7" x="143.4203" y="196.2661">*</text></g></svg>