<?xml version="1.0" encoding="UTF-8" standalone="yes"?><svg xmlns="http://www.w3.org/2000/svg" xmlns:xlink="http://www.w3.org/1999/xlink" height="544px" style="width:509px;height:544px;" version="1.1" viewBox="0 0 509 544" width="509px"><defs><filter height="300%" id="f1" width="300%" x="-1" y="-1"><feGaussianBlur result="blurOut" stdDeviation="2.0"/><feColorMatrix in="blurOut" result="blurOut2" type="matrix" values="0 0 0 0 0 0 0 0 0 0 0 0 0 0 0 0 0 0 .4 0"/><feOffset dx="4.0" dy="4.0" in="blurOut2" result="blurOut3"/><feBlend in="SourceGraphic" in2="blurOut3" mode="normal"/></filter></defs><g><text fill="#000000" font-family="sans-serif" font-size="18" lengthAdjust="spacingAndGlyphs" textLength="381" x="69" y="16.708">Facebook - Post Templates - Class Diagram</text><rect fill="#FEFECE" filter="url(#f1)" height="60.8047" style="stroke: #A80036; stroke-width: 1.5;" width="114" x="71.5" y="339.9531"/><ellipse cx="100.45" cy="355.9531" fill="#ADD1B2" rx="11" ry="11" style="stroke: #A80036; stroke-width: 1.0;"/><path d="M102.7938,351.625 L102.9656,351.7031 C103.1844,351.3906 103.3875,351.2969 103.6844,351.2969 C103.9813,351.2969 104.2625,351.4375 104.4188,351.7031 C104.5125,351.8594 104.5281,351.9844 104.5281,352.4219 L104.5281,353.8438 C104.5281,354.2656 104.4969,354.4531 104.3875,354.6094 C104.2156,354.8281 103.95,354.9688 103.6844,354.9688 C103.4656,354.9688 103.2313,354.8594 103.0906,354.7188 C102.95,354.5938 102.9188,354.4688 102.8563,354.0625 C102.7625,353.6563 102.5906,353.4375 102.1063,353.1563 C101.6375,352.9063 101.0281,352.75 100.45,352.75 C98.7156,352.75 97.4656,354.0625 97.4656,355.8438 L97.4656,356.9375 C97.4656,358.6406 98.7625,359.7344 100.8094,359.7344 C101.575,359.7344 102.2625,359.6094 102.6844,359.3438 C102.8719,359.25 102.8719,359.25 103.325,358.7656 C103.5125,358.5781 103.7156,358.5 103.9344,358.5 C104.4031,358.5 104.7938,358.8906 104.7938,359.3438 C104.7938,359.7344 104.4656,360.1875 103.8875,360.5938 C103.1375,361.1406 101.9813,361.4375 100.7625,361.4375 C97.8719,361.4375 95.7625,359.5469 95.7625,356.9688 L95.7625,355.8438 C95.7625,353.125 97.7625,351.0469 100.3875,351.0469 C101.2625,351.0469 101.8563,351.1875 102.7938,351.625 Z "/><text fill="#000000" font-family="sans-serif" font-size="12" lengthAdjust="spacingAndGlyphs" textLength="51" x="117.55" y="360.1074">PostInfo</text><line style="stroke: #A80036; stroke-width: 1.5;" x1="72.5" x2="184.5" y1="371.9531" y2="371.9531"/><text fill="#000000" font-family="sans-serif" font-size="11" lengthAdjust="spacingAndGlyphs" textLength="102" x="77.5" y="386.1636">StatusText: string</text><line style="stroke: #A80036; stroke-width: 1.5;" x1="72.5" x2="184.5" y1="392.7578" y2="392.7578"/><rect fill="#FEFECE" filter="url(#f1)" height="99.2188" style="stroke: #A80036; stroke-width: 1.5;" width="363" x="6" y="163.9531"/><ellipse cx="140.25" cy="179.9531" fill="#ADD1B2" rx="11" ry="11" style="stroke: #A80036; stroke-width: 1.0;"/><path d="M142.5938,175.625 L142.7656,175.7031 C142.9844,175.3906 143.1875,175.2969 143.4844,175.2969 C143.7813,175.2969 144.0625,175.4375 144.2188,175.7031 C144.3125,175.8594 144.3281,175.9844 144.3281,176.4219 L144.3281,177.8438 C144.3281,178.2656 144.2969,178.4531 144.1875,178.6094 C144.0156,178.8281 143.75,178.9688 143.4844,178.9688 C143.2656,178.9688 143.0313,178.8594 142.8906,178.7188 C142.75,178.5938 142.7188,178.4688 142.6563,178.0625 C142.5625,177.6563 142.3906,177.4375 141.9063,177.1563 C141.4375,176.9063 140.8281,176.75 140.25,176.75 C138.5156,176.75 137.2656,178.0625 137.2656,179.8438 L137.2656,180.9375 C137.2656,182.6406 138.5625,183.7344 140.6094,183.7344 C141.375,183.7344 142.0625,183.6094 142.4844,183.3438 C142.6719,183.25 142.6719,183.25 143.125,182.7656 C143.3125,182.5781 143.5156,182.5 143.7344,182.5 C144.2031,182.5 144.5938,182.8906 144.5938,183.3438 C144.5938,183.7344 144.2656,184.1875 143.6875,184.5938 C142.9375,185.1406 141.7813,185.4375 140.5625,185.4375 C137.6719,185.4375 135.5625,183.5469 135.5625,180.9688 L135.5625,179.8438 C135.5625,177.125 137.5625,175.0469 140.1875,175.0469 C141.0625,175.0469 141.6563,175.1875 142.5938,175.625 Z "/><text fill="#000000" font-family="sans-serif" font-size="12" lengthAdjust="spacingAndGlyphs" textLength="86" x="160.75" y="184.1074">PostTemplate</text><line style="stroke: #A80036; stroke-width: 1.5;" x1="7" x2="368" y1="195.9531" y2="195.9531"/><ellipse cx="17" cy="207.8555" fill="none" rx="3" ry="3" style="stroke: #038048; stroke-width: 1.0;"/><text fill="#000000" font-family="sans-serif" font-size="11" lengthAdjust="spacingAndGlyphs" textLength="74" x="26" y="210.1636">Name: string</text><ellipse cx="17" cy="220.6602" fill="none" rx="3" ry="3" style="stroke: #038048; stroke-width: 1.0;"/><text fill="#000000" font-family="sans-serif" font-size="11" lengthAdjust="spacingAndGlyphs" textLength="337" x="26" y="222.9683">DynamicSections: IDictionary&lt;string, DynamicTextSection&gt;</text><rect fill="none" height="6" style="stroke: #C82930; stroke-width: 1.0;" width="6" x="14" y="230.4648"/><text fill="#000000" font-family="sans-serif" font-size="11" lengthAdjust="spacingAndGlyphs" textLength="244" x="26" y="235.7729">Sections: IEnumerable&lt;ITemplateSection&gt;</text><line style="stroke: #A80036; stroke-width: 1.5;" x1="7" x2="368" y1="242.3672" y2="242.3672"/><ellipse cx="17" cy="254.2695" fill="#84BE84" rx="3" ry="3" style="stroke: #038048; stroke-width: 1.0;"/><text fill="#000000" font-family="sans-serif" font-size="11" lengthAdjust="spacingAndGlyphs" textLength="108" x="26" y="256.5776">Compile(): PostInfo</text><rect fill="#FEFECE" filter="url(#f1)" height="73.6094" style="stroke: #A80036; stroke-width: 1.5;" width="217" x="79" y="28.9531"/><ellipse cx="134.75" cy="44.9531" fill="#B4A7E5" rx="11" ry="11" style="stroke: #A80036; stroke-width: 1.0;"/><path d="M135.7031,41.7344 L135.7031,48.25 L137.4219,48.25 C137.875,48.25 138.0156,48.2813 138.1875,48.4063 C138.4219,48.5781 138.5313,48.8281 138.5313,49.1094 C138.5313,49.6719 138.1719,49.9531 137.4219,49.9531 L132.2813,49.9531 C131.875,49.9531 131.6719,49.9063 131.5156,49.7813 C131.2969,49.625 131.1563,49.3594 131.1563,49.1094 C131.1563,48.8125 131.3125,48.5313 131.5625,48.375 C131.7188,48.2656 131.8438,48.25 132.2813,48.25 L134,48.25 L134,41.7344 L132.2813,41.7344 C131.8594,41.7344 131.6719,41.7031 131.5156,41.5938 C131.2969,41.4219 131.1563,41.1719 131.1563,40.8906 C131.1563,40.6094 131.3125,40.3125 131.5625,40.1563 C131.7188,40.0625 131.8438,40.0469 132.2813,40.0469 L137.4219,40.0469 C137.875,40.0469 138.0156,40.0781 138.1875,40.1875 C138.4219,40.3594 138.5313,40.625 138.5313,40.8906 C138.5313,41.1875 138.3906,41.4688 138.125,41.625 C138,41.7031 137.8125,41.7344 137.4219,41.7344 Z "/><text fill="#000000" font-family="sans-serif" font-size="12" font-style="italic" lengthAdjust="spacingAndGlyphs" textLength="97" x="155.25" y="49.1074">IXmlSerializable</text><line style="stroke: #A80036; stroke-width: 1.5;" x1="80" x2="295" y1="60.9531" y2="60.9531"/><line style="stroke: #A80036; stroke-width: 1.5;" x1="80" x2="295" y1="68.9531" y2="68.9531"/><ellipse cx="90" cy="80.8555" fill="#84BE84" rx="3" ry="3" style="stroke: #038048; stroke-width: 1.0;"/><text fill="#000000" font-family="sans-serif" font-size="11" lengthAdjust="spacingAndGlyphs" textLength="191" x="99" y="83.1636">ReadXml(XmlReader reader): void</text><ellipse cx="90" cy="93.6602" fill="#84BE84" rx="3" ry="3" style="stroke: #038048; stroke-width: 1.0;"/><text fill="#000000" font-family="sans-serif" font-size="11" lengthAdjust="spacingAndGlyphs" textLength="179" x="99" y="95.9683">WriteXml(XmlWriter writer): void</text><rect fill="#FEFECE" filter="url(#f1)" height="60.8047" style="stroke: #A80036; stroke-width: 1.5;" width="150" x="220.5" y="339.9531"/><ellipse cx="239.55" cy="355.9531" fill="#B4A7E5" rx="11" ry="11" style="stroke: #A80036; stroke-width: 1.0;"/><path d="M240.5031,352.7344 L240.5031,359.25 L242.2219,359.25 C242.675,359.25 242.8156,359.2813 242.9875,359.4063 C243.2219,359.5781 243.3313,359.8281 243.3313,360.1094 C243.3313,360.6719 242.9719,360.9531 242.2219,360.9531 L237.0813,360.9531 C236.675,360.9531 236.4719,360.9063 236.3156,360.7813 C236.0969,360.625 235.9563,360.3594 235.9563,360.1094 C235.9563,359.8125 236.1125,359.5313 236.3625,359.375 C236.5188,359.2656 236.6438,359.25 237.0813,359.25 L238.8,359.25 L238.8,352.7344 L237.0813,352.7344 C236.6594,352.7344 236.4719,352.7031 236.3156,352.5938 C236.0969,352.4219 235.9563,352.1719 235.9563,351.8906 C235.9563,351.6094 236.1125,351.3125 236.3625,351.1563 C236.5188,351.0625 236.6438,351.0469 237.0813,351.0469 L242.2219,351.0469 C242.675,351.0469 242.8156,351.0781 242.9875,351.1875 C243.2219,351.3594 243.3313,351.625 243.3313,351.8906 C243.3313,352.1875 243.1906,352.4688 242.925,352.625 C242.8,352.7031 242.6125,352.7344 242.2219,352.7344 Z "/><text fill="#000000" font-family="sans-serif" font-size="12" font-style="italic" lengthAdjust="spacingAndGlyphs" textLength="109" x="254.45" y="360.1074">ITemplateSection</text><line style="stroke: #A80036; stroke-width: 1.5;" x1="221.5" x2="369.5" y1="371.9531" y2="371.9531"/><ellipse cx="231.5" cy="383.8555" fill="none" rx="3" ry="3" style="stroke: #038048; stroke-width: 1.0;"/><text fill="#000000" font-family="sans-serif" font-size="11" lengthAdjust="spacingAndGlyphs" textLength="124" x="240.5" y="386.1636">Value: string {getter}</text><line style="stroke: #A80036; stroke-width: 1.5;" x1="221.5" x2="369.5" y1="392.7578" y2="392.7578"/><rect fill="#FEFECE" filter="url(#f1)" height="73.6094" style="stroke: #A80036; stroke-width: 1.5;" width="176" x="97.5" y="461.9531"/><ellipse cx="128.25" cy="477.9531" fill="#ADD1B2" rx="11" ry="11" style="stroke: #A80036; stroke-width: 1.0;"/><path d="M130.5938,473.625 L130.7656,473.7031 C130.9844,473.3906 131.1875,473.2969 131.4844,473.2969 C131.7813,473.2969 132.0625,473.4375 132.2188,473.7031 C132.3125,473.8594 132.3281,473.9844 132.3281,474.4219 L132.3281,475.8438 C132.3281,476.2656 132.2969,476.4531 132.1875,476.6094 C132.0156,476.8281 131.75,476.9688 131.4844,476.9688 C131.2656,476.9688 131.0313,476.8594 130.8906,476.7188 C130.75,476.5938 130.7188,476.4688 130.6563,476.0625 C130.5625,475.6563 130.3906,475.4375 129.9063,475.1563 C129.4375,474.9063 128.8281,474.75 128.25,474.75 C126.5156,474.75 125.2656,476.0625 125.2656,477.8438 L125.2656,478.9375 C125.2656,480.6406 126.5625,481.7344 128.6094,481.7344 C129.375,481.7344 130.0625,481.6094 130.4844,481.3438 C130.6719,481.25 130.6719,481.25 131.125,480.7656 C131.3125,480.5781 131.5156,480.5 131.7344,480.5 C132.2031,480.5 132.5938,480.8906 132.5938,481.3438 C132.5938,481.7344 132.2656,482.1875 131.6875,482.5938 C130.9375,483.1406 129.7813,483.4375 128.5625,483.4375 C125.6719,483.4375 123.5625,481.5469 123.5625,478.9688 L123.5625,477.8438 C123.5625,475.125 125.5625,473.0469 128.1875,473.0469 C129.0625,473.0469 129.6563,473.1875 130.5938,473.625 Z "/><text fill="#000000" font-family="sans-serif" font-size="12" lengthAdjust="spacingAndGlyphs" textLength="109" x="145.75" y="482.1074">StaticTextSection</text><line style="stroke: #A80036; stroke-width: 1.5;" x1="98.5" x2="272.5" y1="493.9531" y2="493.9531"/><ellipse cx="108.5" cy="505.8555" fill="none" rx="3" ry="3" style="stroke: #038048; stroke-width: 1.0;"/><text fill="#000000" font-family="sans-serif" font-size="11" lengthAdjust="spacingAndGlyphs" textLength="124" x="117.5" y="508.1636">Value: string {getter}</text><line style="stroke: #A80036; stroke-width: 1.5;" x1="98.5" x2="272.5" y1="514.7578" y2="514.7578"/><ellipse cx="108.5" cy="526.6602" fill="#84BE84" rx="3" ry="3" style="stroke: #038048; stroke-width: 1.0;"/><text fill="#000000" font-family="sans-serif" font-size="11" lengthAdjust="spacingAndGlyphs" textLength="150" x="117.5" y="528.9683">constructor(string i_Value)</text><rect fill="#FEFECE" filter="url(#f1)" height="60.8047" style="stroke: #A80036; stroke-width: 1.5;" width="192" x="308.5" y="468.4531"/><ellipse cx="339.25" cy="484.4531" fill="#ADD1B2" rx="11" ry="11" style="stroke: #A80036; stroke-width: 1.0;"/><path d="M341.5938,480.125 L341.7656,480.2031 C341.9844,479.8906 342.1875,479.7969 342.4844,479.7969 C342.7813,479.7969 343.0625,479.9375 343.2188,480.2031 C343.3125,480.3594 343.3281,480.4844 343.3281,480.9219 L343.3281,482.3438 C343.3281,482.7656 343.2969,482.9531 343.1875,483.1094 C343.0156,483.3281 342.75,483.4688 342.4844,483.4688 C342.2656,483.4688 342.0313,483.3594 341.8906,483.2188 C341.75,483.0938 341.7188,482.9688 341.6563,482.5625 C341.5625,482.1563 341.3906,481.9375 340.9063,481.6563 C340.4375,481.4063 339.8281,481.25 339.25,481.25 C337.5156,481.25 336.2656,482.5625 336.2656,484.3438 L336.2656,485.4375 C336.2656,487.1406 337.5625,488.2344 339.6094,488.2344 C340.375,488.2344 341.0625,488.1094 341.4844,487.8438 C341.6719,487.75 341.6719,487.75 342.125,487.2656 C342.3125,487.0781 342.5156,487 342.7344,487 C343.2031,487 343.5938,487.3906 343.5938,487.8438 C343.5938,488.2344 343.2656,488.6875 342.6875,489.0938 C341.9375,489.6406 340.7813,489.9375 339.5625,489.9375 C336.6719,489.9375 334.5625,488.0469 334.5625,485.4688 L334.5625,484.3438 C334.5625,481.625 336.5625,479.5469 339.1875,479.5469 C340.0625,479.5469 340.6563,479.6875 341.5938,480.125 Z "/><text fill="#000000" font-family="sans-serif" font-size="12" lengthAdjust="spacingAndGlyphs" textLength="125" x="356.75" y="488.6074">DynamicTextSection</text><line style="stroke: #A80036; stroke-width: 1.5;" x1="309.5" x2="499.5" y1="500.4531" y2="500.4531"/><ellipse cx="319.5" cy="512.3555" fill="none" rx="3" ry="3" style="stroke: #038048; stroke-width: 1.0;"/><text fill="#000000" font-family="sans-serif" font-size="11" lengthAdjust="spacingAndGlyphs" textLength="166" x="328.5" y="514.6636">Value: string {getter, setter}</text><line style="stroke: #A80036; stroke-width: 1.5;" x1="309.5" x2="499.5" y1="521.2578" y2="521.2578"/><path d="M187.5,123.3171 C187.5,136.6391 187.5,150.7351 187.5,163.6881 " fill="none" style="stroke: #A80036; stroke-width: 1.0; stroke-dasharray: 7.0,7.0;"/><polygon fill="none" points="180.5,123.2941,187.5,103.2931,194.5,123.2931,180.5,123.2941" style="stroke: #A80036; stroke-width: 1.0;"/><path d="M256.359,416.4661 C243.455,431.3051 229.278,447.609 217.017,461.7086 " fill="none" style="stroke: #A80036; stroke-width: 1.0; stroke-dasharray: 7.0,7.0;"/><polygon fill="none" points="251.304,411.6111,269.71,401.1121,261.869,420.7971,251.304,411.6111" style="stroke: #A80036; stroke-width: 1.0;"/><path d="M334.262,416.4391 C349.021,433.5661 365.463,452.6487 378.727,468.042 " fill="none" style="stroke: #A80036; stroke-width: 1.0; stroke-dasharray: 7.0,7.0;"/><polygon fill="none" points="328.808,420.8321,321.056,401.1121,339.414,411.6941,328.808,420.8321" style="stroke: #A80036; stroke-width: 1.0;"/><path d="M162.175,263.2631 C157.628,272.9621 153.174,283.1731 149.5,292.9531 C143.833,308.0381 138.96,325.3131 135.338,339.6261 " fill="none" style="stroke: #A80036; stroke-width: 1.0;"/><text fill="#000000" font-family="sans-serif" font-size="13" lengthAdjust="spacingAndGlyphs" textLength="76" x="150.5" y="306.02">Compiles to</text><path d="M228.904,273.8761 C244.535,296.3091 261.657,320.8821 274.626,339.4941 " fill="none" style="stroke: #A80036; stroke-width: 1.0;"/><polygon fill="#A80036" points="221.376,263.0711,221.5237,270.2807,228.2355,272.9173,228.0878,265.7077,221.376,263.0711" style="stroke: #A80036; stroke-width: 1.0;"/><text fill="#000000" font-family="sans-serif" font-size="13" lengthAdjust="spacingAndGlyphs" textLength="170" x="252.5" y="306.02">status text is composed of</text><text fill="#000000" font-family="sans-serif" font-size="13" lengthAdjust="spacingAndGlyphs" textLength="8" x="217.5773" y="283.1642">1</text><text fill="#000000" font-family="sans-serif" font-size="13" lengthAdjust="spacingAndGlyphs" textLength="7" x="262.5989" y="328.6627">*</text></g></svg>